<svg width="75" height="95" viewBox="0 0 75 95" fill="none" xmlns="http://www.w3.org/2000/svg">
<path d="M37.5 0.361908C16.8 0.361908 0 21.5416 0 47.6381C0 73.7346 16.8 94.9143 37.5 94.9143C58.2 94.9143 75 73.7346 75 47.6381C75 21.5416 58.2 0.361908 37.5 0.361908ZM37.5 14.5448C43.725 14.5448 48.75 20.8798 48.75 28.7276C48.75 36.5755 43.725 42.9105 37.5 42.9105C31.275 42.9105 26.25 36.5755 26.25 28.7276C26.25 20.8798 31.275 14.5448 37.5 14.5448ZM37.5 81.677C28.125 81.677 19.8375 75.6256 15 66.454C15.1125 57.0461 30 51.893 37.5 51.893C44.9625 51.893 59.8875 57.0461 60 66.454C55.1625 75.6256 46.875 81.677 37.5 81.677Z" fill="#9F8039"/>
</svg>
